<svg width="25" height="30" viewBox="0 0 25 30" fill="none" xmlns="http://www.w3.org/2000/svg">
<path d="M21.1124 26.9583V19.0351H23.7533V29.5996H0V19.0351H2.64091V26.9583H21.1124Z" fill="#BCBBBC"/>
<path d="M5.28479 24.317H18.4894V21.6761H5.28479V24.317ZM17.1194 2.86102e-05L15.0003 1.57607L22.881 12.1713L25 10.5952L17.1194 2.86102e-05ZM10.5693 6.24648L20.7158 14.6969L22.4059 12.6675L12.2593 4.21713L10.5693 6.24648ZM7.25681 12.1189L19.2269 17.6937L20.3419 15.2997L8.37174 9.7249L7.25681 12.1189ZM5.54701 18.3063L18.4693 21.0222L19.0125 18.4377L6.09017 15.7218L5.54701 18.3063Z" fill="#F48023"/>
</svg>
