<svg width="13" height="14" viewBox="0 0 13 14" fill="none" xmlns="http://www.w3.org/2000/svg">
<path d="M8.66667 11.875V10.7917C8.66667 10.217 8.4384 9.66593 8.03207 9.2596C7.62574 8.85327 7.07464 8.625 6.50001 8.625H2.70834C2.1337 8.625 1.5826 8.85327 1.17627 9.2596C0.769945 9.66593 0.541672 10.217 0.541672 10.7917V11.875" stroke="white" stroke-linecap="round" stroke-linejoin="round"/>
<path d="M4.60417 6.45833C5.80078 6.45833 6.77083 5.48828 6.77083 4.29167C6.77083 3.09505 5.80078 2.125 4.60417 2.125C3.40755 2.125 2.4375 3.09505 2.4375 4.29167C2.4375 5.48828 3.40755 6.45833 4.60417 6.45833Z" stroke="white" stroke-linecap="round" stroke-linejoin="round"/>
<path d="M10.8333 4.83331V8.08331" stroke="white" stroke-linecap="round" stroke-linejoin="round"/>
<path d="M12.4583 6.45831H9.20833" stroke="white" stroke-linecap="round" stroke-linejoin="round"/>
</svg>
